<svg width="30" height="30" viewBox="0 0 30 30" fill="none"
    xmlns="http://www.w3.org/2000/svg">
    <path d="M16.8347 15.8854C16.8347 17.2256 15.8486 18.313 14.6333 18.313C13.4294 18.313 12.4434 17.2256 12.4434 15.8854C12.4434 14.5452 13.4294 13.4705 14.6333 13.4705C15.8486 13.4705 16.8347 14.5452 16.8347 15.8854Z" fill="white"/>
    <path d="M14.0375 28.681C13.7509 28.2258 13.3496 27.5178 13.1547 27.1005C12.9597 26.6959 12.7763 26.3419 12.7648 26.3166C12.7419 26.304 12.2947 26.5189 11.7673 26.7971C9.96724 27.7327 8.37354 27.9856 6.50466 27.6316C5.90845 27.5178 5.22052 27.3534 4.99121 27.2776C4.47526 27.1132 4.4638 27.012 4.72751 25.3936C4.94535 24.0155 5.26638 22.9913 5.77087 22.081C6.00018 21.6764 6.16069 21.335 6.14923 21.3097C6.1263 21.2971 5.85113 21.1707 5.53009 21.0442C3.59242 20.273 1.78087 18.6419 0.37061 16.3661C-0.0421483 15.7086 -0.0650793 15.6327 0.0839723 15.3672C0.313283 14.9626 1.48276 13.8626 2.30828 13.2684C2.92742 12.8132 3.73001 12.4465 4.62432 12.1684C4.99121 12.0672 4.99121 12.0672 4.7619 11.1821C4.47526 10.0695 4.40647 6.44076 4.65871 5.25225C4.80776 4.50627 4.80776 4.50627 6.08043 4.58214C7.53655 4.67064 8.48819 4.9488 9.87552 5.69478C10.3685 5.97294 10.7813 6.18788 10.8042 6.18788C10.8157 6.18788 10.9189 5.92237 11.0335 5.59363C11.6527 3.7603 12.8451 1.73731 14.0719 0.435005C14.6681 -0.197179 14.6681 -0.197179 15.528 0.814316C15.9981 1.37064 16.6516 2.28098 16.9956 2.83731C17.5918 3.83616 18.4288 5.66949 18.4288 6.01087C18.4288 6.2511 18.4403 6.2511 19.4951 5.69478C20.7334 5.02466 21.9946 4.658 23.3819 4.55685C24.6775 4.46834 24.5399 4.31662 24.7463 6.01087C24.9183 7.5534 24.8265 10.0442 24.5399 11.1948C24.3106 12.0798 24.3106 12.0798 24.8953 12.2316C25.8126 12.4718 26.9935 13.1798 28.0598 14.1281C29.6306 15.5442 29.5733 15.3672 28.828 16.5178C28.0942 17.6304 26.7642 19.1603 25.9731 19.7925C25.4113 20.2477 23.5883 21.2339 23.3016 21.2339C23.187 21.2339 23.3131 21.5879 23.6915 22.4097C24.2991 23.6868 24.666 25.4063 24.5972 26.6074C24.5628 27.2396 24.5628 27.2396 23.7029 27.4672C23.1182 27.6316 22.3615 27.7074 21.3525 27.7201C19.6671 27.7454 18.7957 27.5304 17.374 26.7212C16.9497 26.481 16.5828 26.2914 16.5599 26.2914C16.5255 26.2914 16.2733 26.7592 15.9752 27.3408C15.6885 27.9097 15.2528 28.6304 15.0121 28.9339C14.5764 29.5028 14.5764 29.5028 14.0375 28.681ZM9.43983 24.8373C10.059 24.635 10.7125 24.3189 11.0909 24.0408C11.7559 23.5477 13.3152 21.8913 14.1866 20.7534C14.7025 20.0833 14.7025 20.0833 15.2184 20.8166C17.202 23.6362 19.3575 25.1534 21.4098 25.1534C22.0978 25.1534 22.2009 25.0776 22.0978 24.6097C22.006 24.1419 21.3984 22.7638 21.0544 22.2327C20.7334 21.7396 20.527 21.6258 19.2314 21.3097C18.039 21.0189 17.4313 20.6523 17.1217 20.0833C16.6975 19.2994 17.0529 18.3638 17.9014 18.0097C18.4059 17.7948 18.4747 17.7948 19.4836 18.0224C20.1601 18.1741 21.0315 18.2626 21.8684 18.2626C23.6341 18.2626 24.3335 17.9718 25.4801 16.7833C26.2827 15.9488 26.2827 15.9488 26.0648 15.6833C25.7438 15.304 24.3565 14.558 23.7717 14.4695C23.2787 14.381 23.2443 14.3936 22.3844 15.2155C20.5041 16.973 19.1626 17.1247 18.7728 15.6201C18.6466 15.1143 18.6581 14.9626 18.8186 14.4821C19.0365 13.8752 19.197 13.6856 20.2747 12.8511C21.2264 12.1178 21.6965 11.5235 22.1207 10.55C22.4647 9.74076 22.7054 8.17294 22.5908 7.54076C22.5334 7.21202 22.4876 7.18674 22.1665 7.24995C21.6047 7.37639 20.2518 8.1603 19.7129 8.67869C19.2887 9.09593 19.197 9.28559 19.0021 10.158C18.6237 11.8017 18.0619 12.5097 17.1103 12.5097C15.9752 12.5097 15.5624 11.4856 15.9637 9.6649C16.3191 8.04651 16.1357 6.35225 15.4363 4.83501C14.9777 3.83616 14.7254 3.558 14.4732 3.78558C14.1866 4.03846 13.533 5.42926 13.3381 6.17524C13.0973 7.09823 13.1088 8.91892 13.3725 10.0442C13.6247 11.1189 13.5445 11.5235 12.9712 12.1178C12.5928 12.5097 12.5126 12.535 11.9737 12.4718C11.4807 12.4212 11.3316 12.3454 10.9647 11.9028C10.6093 11.4856 10.5061 11.2327 10.3341 10.3477C10.0934 9.15915 9.82966 8.74191 8.92388 8.09708C8.39647 7.71777 7.21552 7.19938 6.88302 7.19938C6.60785 7.19938 6.68811 8.93156 7.00914 9.98099C7.44483 11.4097 7.99518 12.1178 9.50863 13.2431C10.4717 13.9638 10.7928 14.7097 10.5176 15.5948C10.0819 17.0488 8.44233 16.8465 6.7913 15.1396C6.40147 14.735 5.96578 14.4063 5.83966 14.4063C5.11733 14.4063 3.06501 15.4684 3.06501 15.8477C3.06501 15.9235 3.36311 16.3155 3.73 16.7074C5.16319 18.2753 7.06647 18.6672 9.97871 17.9971C10.9877 17.7569 10.9877 17.7569 11.5266 18.073C11.8705 18.2753 12.1457 18.5534 12.2833 18.8442C12.5011 19.2867 12.5011 19.2994 12.2603 19.8557C11.9393 20.589 11.3087 21.0316 10.1966 21.2971C8.87802 21.6258 8.52259 21.8155 8.1213 22.435C7.54802 23.3201 7.13526 24.4454 7.18112 25.0017C7.20406 25.2672 8.35061 25.1787 9.43983 24.8373Z" fill="white"/>
</svg>
