<svg width="27" height="22" viewBox="0 0 27 22" fill="none"
    xmlns="http://www.w3.org/2000/svg">
    <path d="M0 21.3333V17.6C0 16.8444 0.188889 16.1502 0.566667 15.5173C0.944444 14.8844 1.46667 14.4009 2.13333 14.0667C3.46667 13.4 4.85022 12.8889 6.284 12.5333C7.71778 12.1778 9.17867 12 10.6667 12C11.2222 12 11.7778 12.0391 12.3333 12.1173C12.8889 12.1956 13.4444 12.2898 14 12.4V14.5C13 14.9889 12.1947 15.6333 11.584 16.4333C10.9733 17.2333 10.6676 18.2778 10.6667 19.5667V21.3333H0ZM13.3333 21.3333V19.4667C13.3333 18.9333 13.4724 18.4391 13.7507 17.984C14.0289 17.5289 14.4231 17.2009 14.9333 17C15.7333 16.6667 16.5613 16.4169 17.4173 16.2507C18.2733 16.0844 19.1342 16.0009 20 16C20.8658 15.9991 21.7271 16.0827 22.584 16.2507C23.4409 16.4187 24.2684 16.6684 25.0667 17C25.5778 17.2 25.9724 17.528 26.2507 17.984C26.5289 18.44 26.6676 18.9342 26.6667 19.4667V21.3333H13.3333ZM20 14.6667C19.0667 14.6667 18.2778 14.3444 17.6333 13.7C16.9889 13.0556 16.6667 12.2667 16.6667 11.3333C16.6667 10.4 16.9889 9.61111 17.6333 8.96667C18.2778 8.32222 19.0667 8 20 8C20.9333 8 21.7222 8.32222 22.3667 8.96667C23.0111 9.61111 23.3333 10.4 23.3333 11.3333C23.3333 12.2667 23.0111 13.0556 22.3667 13.7C21.7222 14.3444 20.9333 14.6667 20 14.6667ZM10.6667 10.6667C9.2 10.6667 7.94444 10.1444 6.9 9.1C5.85556 8.05556 5.33333 6.8 5.33333 5.33333C5.33333 3.86667 5.85556 2.61111 6.9 1.56667C7.94444 0.522222 9.2 0 10.6667 0C12.1333 0 13.3889 0.522222 14.4333 1.56667C15.4778 2.61111 16 3.86667 16 5.33333C16 6.8 15.4778 8.05556 14.4333 9.1C13.3889 10.1444 12.1333 10.6667 10.6667 10.6667Z" fill="white"/>
</svg>
