<svg width="32" height="32" viewBox="0 0 32 32" fill="none"
    xmlns="http://www.w3.org/2000/svg">
    <path fill-rule="evenodd" clip-rule="evenodd" d="M26.0739 0.115928C26.348 0.229467 26.5823 0.421752 26.7471 0.668462C26.9119 0.915171 26.9999 1.20522 26.9999 1.50193V5.00193H30.4999C30.7963 5.00219 31.0861 5.0903 31.3325 5.25514C31.579 5.41998 31.771 5.65415 31.8844 5.92808C31.9979 6.20201 32.0276 6.5034 31.9698 6.7942C31.912 7.085 31.7694 7.35215 31.5599 7.56193L25.5599 13.5619C25.2788 13.8433 24.8976 14.0016 24.4999 14.0019H23.7459C24.143 15.5404 24.0731 17.1623 23.5449 18.6608C23.0167 20.1594 22.0543 21.4667 20.7803 22.4162C19.5062 23.3657 17.9783 23.9142 16.3913 23.992C14.8043 24.0697 13.2301 23.6732 11.8694 22.8528C10.5086 22.0324 9.42298 20.8255 8.75084 19.3857C8.0787 17.946 7.85052 16.3387 8.09537 14.7688C8.34022 13.1988 9.04702 11.7374 10.1257 10.5707C11.2043 9.40401 12.6059 8.58495 14.1519 8.21793C14.5391 8.1259 14.947 8.19146 15.2859 8.40019C15.6248 8.60891 15.8668 8.94371 15.9589 9.33093C16.0509 9.71814 15.9853 10.1261 15.7766 10.4649C15.5679 10.8038 15.2331 11.0459 14.8459 11.1379C13.8464 11.3746 12.944 11.9133 12.2615 12.6809C11.579 13.4484 11.1494 14.4076 11.0312 15.4279C10.9129 16.4481 11.1118 17.4801 11.6007 18.3834C12.0896 19.2867 12.8449 20.0175 13.7637 20.4765C14.6826 20.9354 15.7205 21.1003 16.7364 20.9486C17.7523 20.7969 18.6968 20.336 19.4415 19.6286C20.1862 18.9212 20.6949 18.0016 20.8986 16.9949C21.1023 15.9882 20.991 14.9432 20.5799 14.0019H20.1199L17.0599 17.0619C16.9225 17.2093 16.7569 17.3275 16.5729 17.4095C16.3889 17.4915 16.1903 17.5356 15.9889 17.5391C15.7875 17.5427 15.5874 17.5056 15.4007 17.4302C15.2139 17.3547 15.0442 17.2424 14.9018 17.1C14.7594 16.9576 14.6471 16.7879 14.5716 16.6011C14.4962 16.4143 14.4591 16.2143 14.4627 16.0129C14.4662 15.8115 14.5103 15.6129 14.5923 15.4289C14.6743 15.2449 14.7925 15.0793 14.9399 14.9419L17.9999 11.8819V7.50193C18.0002 7.10424 18.1585 6.72296 18.4399 6.44193L24.4399 0.441928C24.6495 0.232145 24.9166 0.0892095 25.2074 0.0311847C25.4983 -0.0268402 25.7998 0.00264987 26.0739 0.115928ZM20.9999 8.12393V11.0019H23.8799L26.8799 8.00193H23.9999V5.12193L20.9999 8.12393ZM9.63987 4.66193C11.9824 3.34795 14.6744 2.7918 17.3459 3.06993C17.5418 3.09028 17.7398 3.07185 17.9286 3.01567C18.1174 2.9595 18.2933 2.86668 18.4463 2.74253C18.5992 2.61838 18.7262 2.46532 18.82 2.29209C18.9138 2.11886 18.9725 1.92886 18.9929 1.73293C19.0132 1.537 18.9948 1.33897 18.9386 1.15017C18.8824 0.961358 18.7896 0.785464 18.6655 0.632526C18.5413 0.479588 18.3883 0.352601 18.215 0.258816C18.0418 0.16503 17.8518 0.106283 17.6559 0.0859281C14.3676 -0.256214 11.0541 0.428643 8.17091 2.04634C5.28772 3.66403 2.97643 6.13513 1.55482 9.11988C0.133203 12.1046 -0.328926 15.4565 0.231967 18.7145C0.792859 21.9726 2.34923 24.977 4.6871 27.3145C7.02497 29.6521 10.0295 31.208 13.2877 31.7684C16.5459 32.3289 19.8976 31.8663 22.8822 30.4442C25.8667 29.0222 28.3375 26.7106 29.9548 23.8272C31.5721 20.9437 32.2565 17.6301 31.9139 14.3419C31.8935 14.146 31.8348 13.956 31.741 13.7828C31.6472 13.6095 31.5202 13.4565 31.3673 13.3323C31.2143 13.2082 31.0384 13.1154 30.8496 13.0592C30.6608 13.003 30.4628 12.9846 30.2669 13.0049C30.0709 13.0253 29.8809 13.084 29.7077 13.1778C29.5345 13.2716 29.3814 13.3986 29.2573 13.5515C29.1331 13.7045 29.0403 13.8804 28.9841 14.0692C28.928 14.258 28.9095 14.456 28.9299 14.6519C29.1735 16.9854 28.7811 19.3413 27.7942 21.4698C26.8074 23.5983 25.263 25.4201 23.3246 26.742C21.3863 28.0638 19.1264 28.8365 16.7846 28.9781C14.4427 29.1197 12.1062 28.6248 10.0227 27.5461C7.9393 26.4673 6.18664 24.8448 4.95059 22.8507C3.71455 20.8566 3.04121 18.5651 3.00196 16.2193C2.96271 13.8734 3.55902 11.5607 4.72766 9.52636C5.89629 7.49198 7.59369 5.81178 9.63987 4.66393V4.66193Z" fill="white"/>
</svg>
