<svg width="66" height="66" viewBox="0 0 66 66" fill="none"
    xmlns="http://www.w3.org/2000/svg">
    <path d="M11.7187 53.1117C14.8353 50.8677 18.1427 49.0942 21.6407 47.7913C25.1362 46.486 28.9227 45.8333 33 45.8333C37.0773 45.8333 40.8638 46.486 44.3593 47.7913C47.8549 49.0967 51.1622 50.8689 54.2813 53.108C56.7013 50.6024 58.6483 47.6447 60.1223 44.2347C61.5963 40.8198 62.3333 37.0749 62.3333 33C62.3333 24.8722 59.477 17.9508 53.7643 12.2357C48.0517 6.52056 41.1302 3.66422 33 3.66667C24.8698 3.66911 17.9483 6.52667 12.2357 12.2393C6.52301 17.952 3.66667 24.8722 3.66667 33C3.66667 37.0749 4.40367 40.8198 5.87767 44.2347C7.35167 47.6471 9.29867 50.6049 11.7187 53.108M33 34.8333C29.9127 34.8333 27.3069 33.7724 25.1827 31.6507C23.0585 29.5289 21.9976 26.9231 22 23.8333C22.0025 20.7436 23.0633 18.1378 25.1827 16.016C27.302 13.8942 29.9078 12.8333 33 12.8333C36.0922 12.8333 38.698 13.8942 40.8173 16.016C42.9367 18.1378 43.9976 20.7436 44 23.8333C44.0025 26.9231 42.9416 29.5289 40.8173 31.6507C38.6931 33.7724 36.0873 34.8333 33 34.8333ZM33 66C28.3971 66 24.0888 65.1432 20.075 63.4297C16.0612 61.7161 12.5681 59.3743 9.59567 56.4043C6.62323 53.4343 4.28145 49.9412 2.57034 45.925C0.859227 41.9088 0.00244966 37.6004 5.21574e-06 33C-0.00243923 28.3996 0.854339 24.0912 2.57034 20.075C4.28634 16.0588 6.62812 12.5657 9.59567 9.59567C12.5681 6.62567 16.0612 4.28389 20.075 2.57033C24.0888 0.856778 28.3971 0 33 0C37.6029 0 41.9112 0.856778 45.925 2.57033C49.9388 4.28389 53.4319 6.62567 56.4043 9.59567C59.3768 12.5657 61.7186 16.0588 63.4297 20.075C65.1408 24.0912 65.9976 28.3996 66 33C66.0025 37.6004 65.1457 41.9088 63.4297 45.925C61.7137 49.9412 59.3719 53.4343 56.4043 56.4043C53.4319 59.3743 49.9388 61.7161 45.925 63.4297C41.9112 65.1432 37.6029 66 33 66Z" fill="black"/>
</svg>
