<svg width="256" height="232" viewBox="0 0 256 232" fill="none"
    xmlns="http://www.w3.org/2000/svg">
    <path d="M122.432 226.84C119.932 223.24 116.432 217.64 114.732 214.34C113.032 211.14 111.432 208.34 111.332 208.14C111.132 208.04 107.232 209.74 102.632 211.94C86.9324 219.34 73.0324 221.34 56.7324 218.54C51.5324 217.64 45.5324 216.34 43.5324 215.74C39.0324 214.44 38.9324 213.64 41.2324 200.84C43.1324 189.94 45.9324 181.84 50.3324 174.64C52.3324 171.44 53.7324 168.74 53.6324 168.54C53.4324 168.44 51.0324 167.44 48.2324 166.44C31.3324 160.34 15.5324 147.44 3.23239 129.44C-0.36761 124.24 -0.56761 123.64 0.73239 121.54C2.73239 118.34 12.9324 109.64 20.1324 104.94C25.5324 101.34 32.5324 98.4405 40.3324 96.2405C43.5324 95.4405 43.5324 95.4405 41.5324 88.4405C39.0324 79.6405 38.4324 50.9405 40.6324 41.5405C41.9324 35.6405 41.9324 35.6405 53.0324 36.2405C65.7324 36.9405 74.0324 39.1405 86.1324 45.0405C90.4324 47.2405 94.0324 48.9405 94.2324 48.9405C94.3324 48.9405 95.2324 46.8405 96.2324 44.2405C101.632 29.7405 112.032 13.7405 122.732 3.44049C127.932 -1.55951 127.932 -1.55951 135.432 6.44049C139.532 10.8405 145.232 18.0405 148.232 22.4405C153.432 30.3405 160.732 44.8405 160.732 47.5405C160.732 49.4405 160.832 49.4405 170.032 45.0405C180.832 39.7405 191.832 36.8405 203.932 36.0405C215.232 35.3405 214.032 34.1405 215.832 47.5405C217.332 59.7405 216.532 79.4405 214.032 88.5405C212.032 95.5405 212.032 95.5405 217.132 96.7405C225.132 98.6405 235.432 104.24 244.732 111.74C258.432 122.94 257.932 121.54 251.432 130.64C245.032 139.44 233.432 151.54 226.532 156.54C221.632 160.14 205.732 167.94 203.232 167.94C202.232 167.94 203.332 170.74 206.632 177.24C211.932 187.34 215.132 200.94 214.532 210.44C214.232 215.44 214.232 215.44 206.732 217.24C201.632 218.54 195.032 219.14 186.232 219.24C171.532 219.44 163.932 217.74 151.532 211.34C147.832 209.44 144.632 207.94 144.432 207.94C144.132 207.94 141.932 211.64 139.332 216.24C136.832 220.74 133.032 226.44 130.932 228.84C127.132 233.34 127.132 233.34 122.432 226.84ZM82.3324 196.44C87.7324 194.84 93.4324 192.34 96.7324 190.14C102.532 186.24 116.132 173.14 123.732 164.14C128.232 158.84 128.232 158.84 132.732 164.64C150.032 186.94 168.832 198.94 186.732 198.94C192.732 198.94 193.632 198.34 192.732 194.64C191.932 190.94 186.632 180.04 183.632 175.84C180.832 171.94 179.032 171.04 167.732 168.54C157.332 166.24 152.032 163.34 149.332 158.84C145.632 152.64 148.732 145.24 156.132 142.44C160.532 140.74 161.132 140.74 169.932 142.54C175.832 143.74 183.432 144.44 190.732 144.44C206.132 144.44 212.232 142.14 222.232 132.74C229.232 126.14 229.232 126.14 227.332 124.04C224.532 121.04 212.432 115.14 207.332 114.44C203.032 113.74 202.732 113.84 195.232 120.34C178.832 134.24 167.132 135.44 163.732 123.54C162.632 119.54 162.732 118.34 164.132 114.54C166.032 109.74 167.432 108.24 176.832 101.64C185.132 95.8405 189.232 91.1405 192.932 83.4405C195.932 77.0405 198.032 64.6405 197.032 59.6405C196.532 57.0405 196.132 56.8405 193.332 57.3405C188.432 58.3405 176.632 64.5405 171.932 68.6405C168.232 71.9405 167.432 73.4405 165.732 80.3405C162.432 93.3405 157.532 98.9405 149.232 98.9405C139.332 98.9405 135.732 90.8405 139.232 76.4405C142.332 63.6405 140.732 50.2405 134.632 38.2405C130.632 30.3405 128.432 28.1405 126.232 29.9405C123.732 31.9405 118.032 42.9405 116.332 48.8405C114.232 56.1405 114.332 70.5405 116.632 79.4405C118.832 87.9405 118.132 91.1405 113.132 95.8405C109.832 98.9405 109.132 99.1405 104.432 98.6405C100.132 98.2405 98.8324 97.6405 95.6324 94.1405C92.5324 90.8405 91.6324 88.8405 90.1324 81.8405C88.0324 72.4405 85.7324 69.1405 77.8324 64.0405C73.2324 61.0405 62.9324 56.9405 60.0324 56.9405C57.6324 56.9405 58.3324 70.6405 61.1324 78.9405C64.9324 90.2405 69.7324 95.8405 82.9324 104.74C91.3324 110.44 94.1324 116.34 91.7324 123.34C87.9324 134.84 73.6324 133.24 59.2324 119.74C55.8324 116.54 52.0324 113.94 50.9324 113.94C44.6324 113.94 26.7324 122.34 26.7324 125.34C26.7324 125.94 29.3324 129.04 32.5324 132.14C45.0324 144.54 61.6324 147.64 87.0324 142.34C95.8324 140.44 95.8324 140.44 100.532 142.94C103.532 144.54 105.932 146.74 107.132 149.04C109.032 152.54 109.032 152.64 106.932 157.04C104.132 162.84 98.6324 166.34 88.9324 168.44C77.4324 171.04 74.3324 172.54 70.8324 177.44C65.8324 184.44 62.2324 193.34 62.6324 197.74C62.8324 199.84 72.8324 199.14 82.3324 196.44Z" fill="#01A1E6"/>
    <path d="M82.3324 196.44C87.7324 194.84 93.4324 192.34 96.7324 190.14C102.532 186.24 116.132 173.14 123.732 164.14C128.232 158.84 128.232 158.84 132.732 164.64C150.032 186.94 168.832 198.94 186.732 198.94C192.732 198.94 193.632 198.34 192.732 194.64C191.932 190.94 186.632 180.04 183.632 175.84C180.832 171.94 179.032 171.04 167.732 168.54C157.332 166.24 152.032 163.34 149.332 158.84C145.632 152.64 148.732 145.24 156.132 142.44C160.532 140.74 161.132 140.74 169.932 142.54C175.832 143.74 183.432 144.44 190.732 144.44C206.132 144.44 212.232 142.14 222.232 132.74C229.232 126.14 229.232 126.14 227.332 124.04C224.532 121.04 212.432 115.14 207.332 114.44C203.032 113.74 202.732 113.84 195.232 120.34C178.832 134.24 167.132 135.44 163.732 123.54C162.632 119.54 162.732 118.34 164.132 114.54C166.032 109.74 167.432 108.24 176.832 101.64C185.132 95.8405 189.232 91.1405 192.932 83.4405C195.932 77.0405 198.032 64.6405 197.032 59.6405C196.532 57.0405 196.132 56.8405 193.332 57.3405C188.432 58.3405 176.632 64.5405 171.932 68.6405C168.232 71.9405 167.432 73.4405 165.732 80.3405C162.432 93.3405 157.532 98.9405 149.232 98.9405C139.332 98.9405 135.732 90.8405 139.232 76.4405C142.332 63.6405 140.732 50.2405 134.632 38.2405C130.632 30.3405 128.432 28.1405 126.232 29.9405C123.732 31.9405 118.032 42.9405 116.332 48.8405C114.232 56.1405 114.332 70.5405 116.632 79.4405C118.832 87.9405 118.132 91.1405 113.132 95.8405C109.832 98.9405 109.132 99.1405 104.432 98.6405C100.132 98.2405 98.8324 97.6405 95.6324 94.1405C92.5324 90.8405 91.6324 88.8405 90.1324 81.8405C88.0324 72.4405 85.7324 69.1405 77.8324 64.0405C73.2324 61.0405 62.9324 56.9405 60.0324 56.9405C57.6324 56.9405 58.3324 70.6405 61.1324 78.9405C64.9324 90.2405 69.7324 95.8405 82.9324 104.74C91.3324 110.44 94.1324 116.34 91.7324 123.34C87.9324 134.84 73.6324 133.24 59.2324 119.74C55.8324 116.54 52.0324 113.94 50.9324 113.94C44.6324 113.94 26.7324 122.34 26.7324 125.34C26.7324 125.94 29.3324 129.04 32.5324 132.14C45.0324 144.54 61.6324 147.64 87.0324 142.34C95.8324 140.44 95.8324 140.44 100.532 142.94C103.532 144.54 105.932 146.74 107.132 149.04C109.032 152.54 109.032 152.64 106.932 157.04C104.132 162.84 98.6324 166.34 88.9324 168.44C77.4324 171.04 74.3324 172.54 70.8324 177.44C65.8324 184.44 62.2324 193.34 62.6324 197.74C62.8324 199.84 72.8324 199.14 82.3324 196.44Z" fill="#01A1E6"/>
    <path d="M122.432 226.84C119.932 223.24 116.432 217.64 114.732 214.34C113.032 211.14 111.432 208.34 111.332 208.14C111.132 208.04 107.232 209.74 102.632 211.94C86.9324 219.34 73.0324 221.34 56.7324 218.54C51.5324 217.64 45.5324 216.34 43.5324 215.74C39.0324 214.44 38.9324 213.64 41.2324 200.84C43.1324 189.94 45.9324 181.84 50.3324 174.64C52.3324 171.44 53.7324 168.74 53.6324 168.54C53.4324 168.44 51.0324 167.44 48.2324 166.44C31.3324 160.34 15.5324 147.44 3.23239 129.44C-0.36761 124.24 -0.56761 123.64 0.73239 121.54C2.73239 118.34 12.9324 109.64 20.1324 104.94C25.5324 101.34 32.5324 98.4405 40.3324 96.2405C43.5324 95.4405 43.5324 95.4405 41.5324 88.4405C39.0324 79.6405 38.4324 50.9405 40.6324 41.5405C41.9324 35.6405 41.9324 35.6405 53.0324 36.2405C65.7324 36.9405 74.0324 39.1405 86.1324 45.0405C90.4324 47.2405 94.0324 48.9405 94.2324 48.9405C94.3324 48.9405 95.2324 46.8405 96.2324 44.2405C101.632 29.7405 112.032 13.7405 122.732 3.44049C127.932 -1.55951 127.932 -1.55951 135.432 6.44049C139.532 10.8405 145.232 18.0405 148.232 22.4405C153.432 30.3405 160.732 44.8405 160.732 47.5405C160.732 49.4405 160.832 49.4405 170.032 45.0405C180.832 39.7405 191.832 36.8405 203.932 36.0405C215.232 35.3405 214.032 34.1405 215.832 47.5405C217.332 59.7405 216.532 79.4405 214.032 88.5405C212.032 95.5405 212.032 95.5405 217.132 96.7405C225.132 98.6405 235.432 104.24 244.732 111.74C258.432 122.94 257.932 121.54 251.432 130.64C245.032 139.44 233.432 151.54 226.532 156.54C221.632 160.14 205.732 167.94 203.232 167.94C202.232 167.94 203.332 170.74 206.632 177.24C211.932 187.34 215.132 200.94 214.532 210.44C214.232 215.44 214.232 215.44 206.732 217.24C201.632 218.54 195.032 219.14 186.232 219.24C171.532 219.44 163.932 217.74 151.532 211.34C147.832 209.44 144.632 207.94 144.432 207.94C144.132 207.94 141.932 211.64 139.332 216.24C136.832 220.74 133.032 226.44 130.932 228.84C127.132 233.34 127.132 233.34 122.432 226.84ZM82.3324 196.44C87.7324 194.84 93.4324 192.34 96.7324 190.14C102.532 186.24 116.132 173.14 123.732 164.14C128.232 158.84 128.232 158.84 132.732 164.64C150.032 186.94 168.832 198.94 186.732 198.94C192.732 198.94 193.632 198.34 192.732 194.64C191.932 190.94 186.632 180.04 183.632 175.84C180.832 171.94 179.032 171.04 167.732 168.54C157.332 166.24 152.032 163.34 149.332 158.84C145.632 152.64 148.732 145.24 156.132 142.44C160.532 140.74 161.132 140.74 169.932 142.54C175.832 143.74 183.432 144.44 190.732 144.44C206.132 144.44 212.232 142.14 222.232 132.74C229.232 126.14 229.232 126.14 227.332 124.04C224.532 121.04 212.432 115.14 207.332 114.44C203.032 113.74 202.732 113.84 195.232 120.34C178.832 134.24 167.132 135.44 163.732 123.54C162.632 119.54 162.732 118.34 164.132 114.54C166.032 109.74 167.432 108.24 176.832 101.64C185.132 95.8405 189.232 91.1405 192.932 83.4405C195.932 77.0405 198.032 64.6405 197.032 59.6405C196.532 57.0405 196.132 56.8405 193.332 57.3405C188.432 58.3405 176.632 64.5405 171.932 68.6405C168.232 71.9405 167.432 73.4405 165.732 80.3405C162.432 93.3405 157.532 98.9405 149.232 98.9405C139.332 98.9405 135.732 90.8405 139.232 76.4405C142.332 63.6405 140.732 50.2405 134.632 38.2405C130.632 30.3405 128.432 28.1405 126.232 29.9405C123.732 31.9405 118.032 42.9405 116.332 48.8405C114.232 56.1405 114.332 70.5405 116.632 79.4405C118.832 87.9405 118.132 91.1405 113.132 95.8405C109.832 98.9405 109.132 99.1405 104.432 98.6405C100.132 98.2405 98.8324 97.6405 95.6324 94.1405C92.5324 90.8405 91.6324 88.8405 90.1324 81.8405C88.0324 72.4405 85.7324 69.1405 77.8324 64.0405C73.2324 61.0405 62.9324 56.9405 60.0324 56.9405C57.6324 56.9405 58.3324 70.6405 61.1324 78.9405C64.9324 90.2405 69.7324 95.8405 82.9324 104.74C91.3324 110.44 94.1324 116.34 91.7324 123.34C87.9324 134.84 73.6324 133.24 59.2324 119.74C55.8324 116.54 52.0324 113.94 50.9324 113.94C44.6324 113.94 26.7324 122.34 26.7324 125.34C26.7324 125.94 29.3324 129.04 32.5324 132.14C45.0324 144.54 61.6324 147.64 87.0324 142.34C95.8324 140.44 95.8324 140.44 100.532 142.94C103.532 144.54 105.932 146.74 107.132 149.04C109.032 152.54 109.032 152.64 106.932 157.04C104.132 162.84 98.6324 166.34 88.9324 168.44C77.4324 171.04 74.3324 172.54 70.8324 177.44C65.8324 184.44 62.2324 193.34 62.6324 197.74C62.8324 199.84 72.8324 199.14 82.3324 196.44Z" fill="#3D723F"/>
</svg>
