<svg width="100%" height="100%" viewBox="0 0 4725 4725" xmlns="http://www.w3.org/2000/svg" style="fill-rule:evenodd;clip-rule:evenodd;stroke-linejoin:round;stroke-miterlimit:2;">
    <g transform="matrix(9.841189,0,0,9.841189,2362.204724,2362.204724)">
        <g transform="matrix(1,0,0,1,-83.333333,-77.083333)">
            <clipPath id="_clip1"><rect x="0" y="0" width="166.667" height="154.167"/></clipPath>
            <g clip-path="url(#_clip1)">
                <g transform="matrix(4.166667,0,0,4.166667,0,0)">
                    <path d="M22.957,19.644C22.957,21.301 21.612,22.645 19.955,22.645C18.313,22.645 16.969,21.301 16.969,19.644C16.969,17.986 18.313,16.657 19.955,16.657C21.612,16.657 22.957,17.986 22.957,19.644Z" style="fill:rgb(208,208,208);fill-rule:nonzero;"/>
                </g>
                <g transform="matrix(4.166667,0,0,4.166667,0,0)">
                    <path d="M19.142,35.466C18.751,34.903 18.204,34.028 17.938,33.512C17.672,33.011 17.422,32.574 17.407,32.542C17.375,32.527 16.766,32.792 16.046,33.136C13.592,34.293 11.418,34.606 8.87,34.168C8.057,34.028 7.119,33.824 6.806,33.731C6.103,33.527 6.087,33.402 6.447,31.401C6.744,29.697 7.181,28.43 7.869,27.305C8.182,26.804 8.401,26.382 8.385,26.351C8.354,26.335 7.979,26.179 7.541,26.023C4.899,25.069 2.428,23.052 0.505,20.238C-0.057,19.425 -0.089,19.331 0.115,19.003C0.427,18.502 2.022,17.142 3.148,16.407C3.992,15.844 5.086,15.391 6.306,15.047C6.806,14.922 6.806,14.922 6.494,13.828C6.103,12.452 6.009,7.964 6.353,6.495C6.556,5.572 6.556,5.572 8.291,5.666C10.277,5.776 11.575,6.12 13.467,7.042C14.139,7.386 14.702,7.652 14.733,7.652C14.749,7.652 14.889,7.323 15.046,6.917C15.89,4.65 17.516,2.148 19.189,0.538C20.002,-0.244 20.002,-0.244 21.175,1.007C21.816,1.695 22.707,2.821 23.176,3.509C23.989,4.744 25.13,7.011 25.13,7.433C25.13,7.73 25.146,7.73 26.584,7.042C28.273,6.213 29.993,5.76 31.884,5.635C33.651,5.525 33.464,5.338 33.745,7.433C33.98,9.34 33.854,12.42 33.464,13.843C33.151,14.938 33.151,14.938 33.948,15.125C35.199,15.422 36.809,16.298 38.263,17.47C40.405,19.221 40.327,19.003 39.311,20.425C38.31,21.801 36.497,23.693 35.418,24.475C34.652,25.038 32.166,26.257 31.775,26.257C31.619,26.257 31.791,26.695 32.306,27.711C33.135,29.29 33.636,31.417 33.542,32.902C33.495,33.684 33.495,33.684 32.322,33.965C31.525,34.168 30.493,34.262 29.117,34.278C26.819,34.309 25.631,34.043 23.692,33.043C23.113,32.746 22.613,32.511 22.582,32.511C22.535,32.511 22.191,33.09 21.784,33.809C21.393,34.512 20.799,35.404 20.471,35.779C19.877,36.482 19.877,36.482 19.142,35.466ZM12.873,30.713C13.717,30.463 14.608,30.072 15.124,29.728C16.031,29.118 18.157,27.07 19.345,25.663C20.049,24.834 20.049,24.834 20.752,25.741C23.457,29.228 26.397,31.104 29.195,31.104C30.133,31.104 30.274,31.01 30.133,30.432C30.008,29.853 29.18,28.149 28.71,27.492C28.273,26.883 27.991,26.742 26.225,26.351C24.599,25.991 23.77,25.538 23.348,24.834C22.769,23.865 23.254,22.708 24.411,22.27C25.099,22.005 25.193,22.005 26.569,22.286C27.491,22.474 28.679,22.583 29.821,22.583C32.228,22.583 33.182,22.223 34.746,20.754C35.84,19.722 35.84,19.722 35.543,19.393C35.105,18.924 33.213,18.002 32.416,17.892C31.744,17.783 31.697,17.799 30.524,18.815C27.96,20.988 26.131,21.176 25.599,19.315C25.427,18.69 25.443,18.502 25.662,17.908C25.959,17.158 26.178,16.923 27.647,15.891C28.945,14.985 29.586,14.25 30.165,13.046C30.634,12.045 30.962,10.106 30.806,9.325C30.727,8.918 30.665,8.887 30.227,8.965C29.461,9.121 27.616,10.091 26.881,10.732C26.303,11.248 26.178,11.482 25.912,12.561C25.396,14.594 24.63,15.469 23.332,15.469C21.784,15.469 21.221,14.203 21.769,11.951C22.253,9.95 22.003,7.855 21.049,5.979C20.424,4.744 20.08,4.4 19.736,4.681C19.345,4.994 18.454,6.714 18.188,7.636C17.86,8.777 17.876,11.029 18.235,12.42C18.579,13.749 18.47,14.25 17.688,14.985C17.172,15.469 17.063,15.5 16.328,15.422C15.655,15.36 15.452,15.266 14.952,14.719C14.467,14.203 14.326,13.89 14.092,12.796C13.764,11.326 13.404,10.81 12.169,10.013C11.45,9.544 9.839,8.903 9.386,8.903C9.011,8.903 9.12,11.044 9.558,12.342C10.152,14.109 10.902,14.985 12.966,16.376C14.28,17.267 14.717,18.19 14.342,19.284C13.748,21.082 11.512,20.832 9.261,18.721C8.729,18.221 8.135,17.814 7.963,17.814C6.978,17.814 4.18,19.128 4.18,19.597C4.18,19.691 4.586,20.175 5.086,20.66C7.041,22.599 9.636,23.083 13.607,22.255C14.983,21.958 14.983,21.958 15.718,22.348C16.187,22.599 16.562,22.943 16.75,23.302C17.047,23.849 17.047,23.865 16.719,24.553C16.281,25.46 15.421,26.007 13.904,26.335C12.106,26.742 11.622,26.976 11.075,27.742C10.293,28.837 9.73,30.228 9.792,30.916C9.824,31.245 11.387,31.135 12.873,30.713Z" style="fill:rgb(232,232,232);fill-rule:nonzero;"/>
                </g>
            </g>
        </g>
    </g>
    <g transform="matrix(9.841189,0,0,9.841189,4724.409449,4724.409449)">
        <g transform="matrix(1,0,0,1,-83.333333,-77.083333)">
            <clipPath id="_clip2"><rect x="0" y="0" width="166.667" height="154.167"/></clipPath>
            <g clip-path="url(#_clip2)">
                <g transform="matrix(4.166667,0,0,4.166667,0,0)"><path d="M22.957,19.644C22.957,21.301 21.612,22.645 19.955,22.645C18.313,22.645 16.969,21.301 16.969,19.644C16.969,17.986 18.313,16.657 19.955,16.657C21.612,16.657 22.957,17.986 22.957,19.644Z" style="fill:rgb(208,208,208);fill-rule:nonzero;"/></g>
                <g transform="matrix(4.166667,0,0,4.166667,0,0)"><path d="M19.142,35.466C18.751,34.903 18.204,34.028 17.938,33.512C17.672,33.011 17.422,32.574 17.407,32.542C17.375,32.527 16.766,32.792 16.046,33.136C13.592,34.293 11.418,34.606 8.87,34.168C8.057,34.028 7.119,33.824 6.806,33.731C6.103,33.527 6.087,33.402 6.447,31.401C6.744,29.697 7.181,28.43 7.869,27.305C8.182,26.804 8.401,26.382 8.385,26.351C8.354,26.335 7.979,26.179 7.541,26.023C4.899,25.069 2.428,23.052 0.505,20.238C-0.057,19.425 -0.089,19.331 0.115,19.003C0.427,18.502 2.022,17.142 3.148,16.407C3.992,15.844 5.086,15.391 6.306,15.047C6.806,14.922 6.806,14.922 6.494,13.828C6.103,12.452 6.009,7.964 6.353,6.495C6.556,5.572 6.556,5.572 8.291,5.666C10.277,5.776 11.575,6.12 13.467,7.042C14.139,7.386 14.702,7.652 14.733,7.652C14.749,7.652 14.889,7.323 15.046,6.917C15.89,4.65 17.516,2.148 19.189,0.538C20.002,-0.244 20.002,-0.244 21.175,1.007C21.816,1.695 22.707,2.821 23.176,3.509C23.989,4.744 25.13,7.011 25.13,7.433C25.13,7.73 25.146,7.73 26.584,7.042C28.273,6.213 29.993,5.76 31.884,5.635C33.651,5.525 33.464,5.338 33.745,7.433C33.98,9.34 33.854,12.42 33.464,13.843C33.151,14.938 33.151,14.938 33.948,15.125C35.199,15.422 36.809,16.298 38.263,17.47C40.405,19.221 40.327,19.003 39.311,20.425C38.31,21.801 36.497,23.693 35.418,24.475C34.652,25.038 32.166,26.257 31.775,26.257C31.619,26.257 31.791,26.695 32.306,27.711C33.135,29.29 33.636,31.417 33.542,32.902C33.495,33.684 33.495,33.684 32.322,33.965C31.525,34.168 30.493,34.262 29.117,34.278C26.819,34.309 25.631,34.043 23.692,33.043C23.113,32.746 22.613,32.511 22.582,32.511C22.535,32.511 22.191,33.09 21.784,33.809C21.393,34.512 20.799,35.404 20.471,35.779C19.877,36.482 19.877,36.482 19.142,35.466ZM12.873,30.713C13.717,30.463 14.608,30.072 15.124,29.728C16.031,29.118 18.157,27.07 19.345,25.663C20.049,24.834 20.049,24.834 20.752,25.741C23.457,29.228 26.397,31.104 29.195,31.104C30.133,31.104 30.274,31.01 30.133,30.432C30.008,29.853 29.18,28.149 28.71,27.492C28.273,26.883 27.991,26.742 26.225,26.351C24.599,25.991 23.77,25.538 23.348,24.834C22.769,23.865 23.254,22.708 24.411,22.27C25.099,22.005 25.193,22.005 26.569,22.286C27.491,22.474 28.679,22.583 29.821,22.583C32.228,22.583 33.182,22.223 34.746,20.754C35.84,19.722 35.84,19.722 35.543,19.393C35.105,18.924 33.213,18.002 32.416,17.892C31.744,17.783 31.697,17.799 30.524,18.815C27.96,20.988 26.131,21.176 25.599,19.315C25.427,18.69 25.443,18.502 25.662,17.908C25.959,17.158 26.178,16.923 27.647,15.891C28.945,14.985 29.586,14.25 30.165,13.046C30.634,12.045 30.962,10.106 30.806,9.325C30.727,8.918 30.665,8.887 30.227,8.965C29.461,9.121 27.616,10.091 26.881,10.732C26.303,11.248 26.178,11.482 25.912,12.561C25.396,14.594 24.63,15.469 23.332,15.469C21.784,15.469 21.221,14.203 21.769,11.951C22.253,9.95 22.003,7.855 21.049,5.979C20.424,4.744 20.08,4.4 19.736,4.681C19.345,4.994 18.454,6.714 18.188,7.636C17.86,8.777 17.876,11.029 18.235,12.42C18.579,13.749 18.47,14.25 17.688,14.985C17.172,15.469 17.063,15.5 16.328,15.422C15.655,15.36 15.452,15.266 14.952,14.719C14.467,14.203 14.326,13.89 14.092,12.796C13.764,11.326 13.404,10.81 12.169,10.013C11.45,9.544 9.839,8.903 9.386,8.903C9.011,8.903 9.12,11.044 9.558,12.342C10.152,14.109 10.902,14.985 12.966,16.376C14.28,17.267 14.717,18.19 14.342,19.284C13.748,21.082 11.512,20.832 9.261,18.721C8.729,18.221 8.135,17.814 7.963,17.814C6.978,17.814 4.18,19.128 4.18,19.597C4.18,19.691 4.586,20.175 5.086,20.66C7.041,22.599 9.636,23.083 13.607,22.255C14.983,21.958 14.983,21.958 15.718,22.348C16.187,22.599 16.562,22.943 16.75,23.302C17.047,23.849 17.047,23.865 16.719,24.553C16.281,25.46 15.421,26.007 13.904,26.335C12.106,26.742 11.622,26.976 11.075,27.742C10.293,28.837 9.73,30.228 9.792,30.916C9.824,31.245 11.387,31.135 12.873,30.713Z" style="fill:rgb(232,232,232);fill-rule:nonzero;"/></g>
            </g>
        </g>
    </g>
    <g transform="matrix(9.841189,0,0,9.841189,0,4724.409449)">
        <g transform="matrix(1,0,0,1,-83.333333,-77.083333)">
            <clipPath id="_clip3"><rect x="0" y="0" width="166.667" height="154.167"/></clipPath>
            <g clip-path="url(#_clip3)">
                <g transform="matrix(4.166667,0,0,4.166667,0,0)"><path d="M22.957,19.644C22.957,21.301 21.612,22.645 19.955,22.645C18.313,22.645 16.969,21.301 16.969,19.644C16.969,17.986 18.313,16.657 19.955,16.657C21.612,16.657 22.957,17.986 22.957,19.644Z" style="fill:rgb(208,208,208);fill-rule:nonzero;"/></g>
                <g transform="matrix(4.166667,0,0,4.166667,0,0)"><path d="M19.142,35.466C18.751,34.903 18.204,34.028 17.938,33.512C17.672,33.011 17.422,32.574 17.407,32.542C17.375,32.527 16.766,32.792 16.046,33.136C13.592,34.293 11.418,34.606 8.87,34.168C8.057,34.028 7.119,33.824 6.806,33.731C6.103,33.527 6.087,33.402 6.447,31.401C6.744,29.697 7.181,28.43 7.869,27.305C8.182,26.804 8.401,26.382 8.385,26.351C8.354,26.335 7.979,26.179 7.541,26.023C4.899,25.069 2.428,23.052 0.505,20.238C-0.057,19.425 -0.089,19.331 0.115,19.003C0.427,18.502 2.022,17.142 3.148,16.407C3.992,15.844 5.086,15.391 6.306,15.047C6.806,14.922 6.806,14.922 6.494,13.828C6.103,12.452 6.009,7.964 6.353,6.495C6.556,5.572 6.556,5.572 8.291,5.666C10.277,5.776 11.575,6.12 13.467,7.042C14.139,7.386 14.702,7.652 14.733,7.652C14.749,7.652 14.889,7.323 15.046,6.917C15.89,4.65 17.516,2.148 19.189,0.538C20.002,-0.244 20.002,-0.244 21.175,1.007C21.816,1.695 22.707,2.821 23.176,3.509C23.989,4.744 25.13,7.011 25.13,7.433C25.13,7.73 25.146,7.73 26.584,7.042C28.273,6.213 29.993,5.76 31.884,5.635C33.651,5.525 33.464,5.338 33.745,7.433C33.98,9.34 33.854,12.42 33.464,13.843C33.151,14.938 33.151,14.938 33.948,15.125C35.199,15.422 36.809,16.298 38.263,17.47C40.405,19.221 40.327,19.003 39.311,20.425C38.31,21.801 36.497,23.693 35.418,24.475C34.652,25.038 32.166,26.257 31.775,26.257C31.619,26.257 31.791,26.695 32.306,27.711C33.135,29.29 33.636,31.417 33.542,32.902C33.495,33.684 33.495,33.684 32.322,33.965C31.525,34.168 30.493,34.262 29.117,34.278C26.819,34.309 25.631,34.043 23.692,33.043C23.113,32.746 22.613,32.511 22.582,32.511C22.535,32.511 22.191,33.09 21.784,33.809C21.393,34.512 20.799,35.404 20.471,35.779C19.877,36.482 19.877,36.482 19.142,35.466ZM12.873,30.713C13.717,30.463 14.608,30.072 15.124,29.728C16.031,29.118 18.157,27.07 19.345,25.663C20.049,24.834 20.049,24.834 20.752,25.741C23.457,29.228 26.397,31.104 29.195,31.104C30.133,31.104 30.274,31.01 30.133,30.432C30.008,29.853 29.18,28.149 28.71,27.492C28.273,26.883 27.991,26.742 26.225,26.351C24.599,25.991 23.77,25.538 23.348,24.834C22.769,23.865 23.254,22.708 24.411,22.27C25.099,22.005 25.193,22.005 26.569,22.286C27.491,22.474 28.679,22.583 29.821,22.583C32.228,22.583 33.182,22.223 34.746,20.754C35.84,19.722 35.84,19.722 35.543,19.393C35.105,18.924 33.213,18.002 32.416,17.892C31.744,17.783 31.697,17.799 30.524,18.815C27.96,20.988 26.131,21.176 25.599,19.315C25.427,18.69 25.443,18.502 25.662,17.908C25.959,17.158 26.178,16.923 27.647,15.891C28.945,14.985 29.586,14.25 30.165,13.046C30.634,12.045 30.962,10.106 30.806,9.325C30.727,8.918 30.665,8.887 30.227,8.965C29.461,9.121 27.616,10.091 26.881,10.732C26.303,11.248 26.178,11.482 25.912,12.561C25.396,14.594 24.63,15.469 23.332,15.469C21.784,15.469 21.221,14.203 21.769,11.951C22.253,9.95 22.003,7.855 21.049,5.979C20.424,4.744 20.08,4.4 19.736,4.681C19.345,4.994 18.454,6.714 18.188,7.636C17.86,8.777 17.876,11.029 18.235,12.42C18.579,13.749 18.47,14.25 17.688,14.985C17.172,15.469 17.063,15.5 16.328,15.422C15.655,15.36 15.452,15.266 14.952,14.719C14.467,14.203 14.326,13.89 14.092,12.796C13.764,11.326 13.404,10.81 12.169,10.013C11.45,9.544 9.839,8.903 9.386,8.903C9.011,8.903 9.12,11.044 9.558,12.342C10.152,14.109 10.902,14.985 12.966,16.376C14.28,17.267 14.717,18.19 14.342,19.284C13.748,21.082 11.512,20.832 9.261,18.721C8.729,18.221 8.135,17.814 7.963,17.814C6.978,17.814 4.18,19.128 4.18,19.597C4.18,19.691 4.586,20.175 5.086,20.66C7.041,22.599 9.636,23.083 13.607,22.255C14.983,21.958 14.983,21.958 15.718,22.348C16.187,22.599 16.562,22.943 16.75,23.302C17.047,23.849 17.047,23.865 16.719,24.553C16.281,25.46 15.421,26.007 13.904,26.335C12.106,26.742 11.622,26.976 11.075,27.742C10.293,28.837 9.73,30.228 9.792,30.916C9.824,31.245 11.387,31.135 12.873,30.713Z" style="fill:rgb(232,232,232);fill-rule:nonzero;"/></g>
            </g>
        </g>
    </g>
    <g transform="matrix(9.841189,0,0,9.841189,0,0)">
        <g transform="matrix(1,0,0,1,-83.333333,-77.083333)">
            <clipPath id="_clip4"><rect x="0" y="0" width="166.667" height="154.167"/></clipPath>
            <g clip-path="url(#_clip4)">
                <g transform="matrix(4.166667,0,0,4.166667,0,0)"><path d="M22.957,19.644C22.957,21.301 21.612,22.645 19.955,22.645C18.313,22.645 16.969,21.301 16.969,19.644C16.969,17.986 18.313,16.657 19.955,16.657C21.612,16.657 22.957,17.986 22.957,19.644Z" style="fill:rgb(208,208,208);fill-rule:nonzero;"/></g>
                <g transform="matrix(4.166667,0,0,4.166667,0,0)"><path d="M19.142,35.466C18.751,34.903 18.204,34.028 17.938,33.512C17.672,33.011 17.422,32.574 17.407,32.542C17.375,32.527 16.766,32.792 16.046,33.136C13.592,34.293 11.418,34.606 8.87,34.168C8.057,34.028 7.119,33.824 6.806,33.731C6.103,33.527 6.087,33.402 6.447,31.401C6.744,29.697 7.181,28.43 7.869,27.305C8.182,26.804 8.401,26.382 8.385,26.351C8.354,26.335 7.979,26.179 7.541,26.023C4.899,25.069 2.428,23.052 0.505,20.238C-0.057,19.425 -0.089,19.331 0.115,19.003C0.427,18.502 2.022,17.142 3.148,16.407C3.992,15.844 5.086,15.391 6.306,15.047C6.806,14.922 6.806,14.922 6.494,13.828C6.103,12.452 6.009,7.964 6.353,6.495C6.556,5.572 6.556,5.572 8.291,5.666C10.277,5.776 11.575,6.12 13.467,7.042C14.139,7.386 14.702,7.652 14.733,7.652C14.749,7.652 14.889,7.323 15.046,6.917C15.89,4.65 17.516,2.148 19.189,0.538C20.002,-0.244 20.002,-0.244 21.175,1.007C21.816,1.695 22.707,2.821 23.176,3.509C23.989,4.744 25.13,7.011 25.13,7.433C25.13,7.73 25.146,7.73 26.584,7.042C28.273,6.213 29.993,5.76 31.884,5.635C33.651,5.525 33.464,5.338 33.745,7.433C33.98,9.34 33.854,12.42 33.464,13.843C33.151,14.938 33.151,14.938 33.948,15.125C35.199,15.422 36.809,16.298 38.263,17.47C40.405,19.221 40.327,19.003 39.311,20.425C38.31,21.801 36.497,23.693 35.418,24.475C34.652,25.038 32.166,26.257 31.775,26.257C31.619,26.257 31.791,26.695 32.306,27.711C33.135,29.29 33.636,31.417 33.542,32.902C33.495,33.684 33.495,33.684 32.322,33.965C31.525,34.168 30.493,34.262 29.117,34.278C26.819,34.309 25.631,34.043 23.692,33.043C23.113,32.746 22.613,32.511 22.582,32.511C22.535,32.511 22.191,33.09 21.784,33.809C21.393,34.512 20.799,35.404 20.471,35.779C19.877,36.482 19.877,36.482 19.142,35.466ZM12.873,30.713C13.717,30.463 14.608,30.072 15.124,29.728C16.031,29.118 18.157,27.07 19.345,25.663C20.049,24.834 20.049,24.834 20.752,25.741C23.457,29.228 26.397,31.104 29.195,31.104C30.133,31.104 30.274,31.01 30.133,30.432C30.008,29.853 29.18,28.149 28.71,27.492C28.273,26.883 27.991,26.742 26.225,26.351C24.599,25.991 23.77,25.538 23.348,24.834C22.769,23.865 23.254,22.708 24.411,22.27C25.099,22.005 25.193,22.005 26.569,22.286C27.491,22.474 28.679,22.583 29.821,22.583C32.228,22.583 33.182,22.223 34.746,20.754C35.84,19.722 35.84,19.722 35.543,19.393C35.105,18.924 33.213,18.002 32.416,17.892C31.744,17.783 31.697,17.799 30.524,18.815C27.96,20.988 26.131,21.176 25.599,19.315C25.427,18.69 25.443,18.502 25.662,17.908C25.959,17.158 26.178,16.923 27.647,15.891C28.945,14.985 29.586,14.25 30.165,13.046C30.634,12.045 30.962,10.106 30.806,9.325C30.727,8.918 30.665,8.887 30.227,8.965C29.461,9.121 27.616,10.091 26.881,10.732C26.303,11.248 26.178,11.482 25.912,12.561C25.396,14.594 24.63,15.469 23.332,15.469C21.784,15.469 21.221,14.203 21.769,11.951C22.253,9.95 22.003,7.855 21.049,5.979C20.424,4.744 20.08,4.4 19.736,4.681C19.345,4.994 18.454,6.714 18.188,7.636C17.86,8.777 17.876,11.029 18.235,12.42C18.579,13.749 18.47,14.25 17.688,14.985C17.172,15.469 17.063,15.5 16.328,15.422C15.655,15.36 15.452,15.266 14.952,14.719C14.467,14.203 14.326,13.89 14.092,12.796C13.764,11.326 13.404,10.81 12.169,10.013C11.45,9.544 9.839,8.903 9.386,8.903C9.011,8.903 9.12,11.044 9.558,12.342C10.152,14.109 10.902,14.985 12.966,16.376C14.28,17.267 14.717,18.19 14.342,19.284C13.748,21.082 11.512,20.832 9.261,18.721C8.729,18.221 8.135,17.814 7.963,17.814C6.978,17.814 4.18,19.128 4.18,19.597C4.18,19.691 4.586,20.175 5.086,20.66C7.041,22.599 9.636,23.083 13.607,22.255C14.983,21.958 14.983,21.958 15.718,22.348C16.187,22.599 16.562,22.943 16.75,23.302C17.047,23.849 17.047,23.865 16.719,24.553C16.281,25.46 15.421,26.007 13.904,26.335C12.106,26.742 11.622,26.976 11.075,27.742C10.293,28.837 9.73,30.228 9.792,30.916C9.824,31.245 11.387,31.135 12.873,30.713Z" style="fill:rgb(232,232,232);fill-rule:nonzero;"/></g>
            </g>
        </g>
    </g>
    <g transform="matrix(9.841189,0,0,9.841189,4724.409449,0)">
        <g transform="matrix(1,0,0,1,-83.333333,-77.083333)">
            <clipPath id="_clip5"><rect x="0" y="0" width="166.667" height="154.167"/></clipPath>
            <g clip-path="url(#_clip5)">
                <g transform="matrix(4.166667,0,0,4.166667,0,0)"><path d="M22.957,19.644C22.957,21.301 21.612,22.645 19.955,22.645C18.313,22.645 16.969,21.301 16.969,19.644C16.969,17.986 18.313,16.657 19.955,16.657C21.612,16.657 22.957,17.986 22.957,19.644Z" style="fill:rgb(208,208,208);fill-rule:nonzero;"/></g>
                <g transform="matrix(4.166667,0,0,4.166667,0,0)"><path d="M19.142,35.466C18.751,34.903 18.204,34.028 17.938,33.512C17.672,33.011 17.422,32.574 17.407,32.542C17.375,32.527 16.766,32.792 16.046,33.136C13.592,34.293 11.418,34.606 8.87,34.168C8.057,34.028 7.119,33.824 6.806,33.731C6.103,33.527 6.087,33.402 6.447,31.401C6.744,29.697 7.181,28.43 7.869,27.305C8.182,26.804 8.401,26.382 8.385,26.351C8.354,26.335 7.979,26.179 7.541,26.023C4.899,25.069 2.428,23.052 0.505,20.238C-0.057,19.425 -0.089,19.331 0.115,19.003C0.427,18.502 2.022,17.142 3.148,16.407C3.992,15.844 5.086,15.391 6.306,15.047C6.806,14.922 6.806,14.922 6.494,13.828C6.103,12.452 6.009,7.964 6.353,6.495C6.556,5.572 6.556,5.572 8.291,5.666C10.277,5.776 11.575,6.12 13.467,7.042C14.139,7.386 14.702,7.652 14.733,7.652C14.749,7.652 14.889,7.323 15.046,6.917C15.89,4.65 17.516,2.148 19.189,0.538C20.002,-0.244 20.002,-0.244 21.175,1.007C21.816,1.695 22.707,2.821 23.176,3.509C23.989,4.744 25.13,7.011 25.13,7.433C25.13,7.73 25.146,7.73 26.584,7.042C28.273,6.213 29.993,5.76 31.884,5.635C33.651,5.525 33.464,5.338 33.745,7.433C33.98,9.34 33.854,12.42 33.464,13.843C33.151,14.938 33.151,14.938 33.948,15.125C35.199,15.422 36.809,16.298 38.263,17.47C40.405,19.221 40.327,19.003 39.311,20.425C38.31,21.801 36.497,23.693 35.418,24.475C34.652,25.038 32.166,26.257 31.775,26.257C31.619,26.257 31.791,26.695 32.306,27.711C33.135,29.29 33.636,31.417 33.542,32.902C33.495,33.684 33.495,33.684 32.322,33.965C31.525,34.168 30.493,34.262 29.117,34.278C26.819,34.309 25.631,34.043 23.692,33.043C23.113,32.746 22.613,32.511 22.582,32.511C22.535,32.511 22.191,33.09 21.784,33.809C21.393,34.512 20.799,35.404 20.471,35.779C19.877,36.482 19.877,36.482 19.142,35.466ZM12.873,30.713C13.717,30.463 14.608,30.072 15.124,29.728C16.031,29.118 18.157,27.07 19.345,25.663C20.049,24.834 20.049,24.834 20.752,25.741C23.457,29.228 26.397,31.104 29.195,31.104C30.133,31.104 30.274,31.01 30.133,30.432C30.008,29.853 29.18,28.149 28.71,27.492C28.273,26.883 27.991,26.742 26.225,26.351C24.599,25.991 23.77,25.538 23.348,24.834C22.769,23.865 23.254,22.708 24.411,22.27C25.099,22.005 25.193,22.005 26.569,22.286C27.491,22.474 28.679,22.583 29.821,22.583C32.228,22.583 33.182,22.223 34.746,20.754C35.84,19.722 35.84,19.722 35.543,19.393C35.105,18.924 33.213,18.002 32.416,17.892C31.744,17.783 31.697,17.799 30.524,18.815C27.96,20.988 26.131,21.176 25.599,19.315C25.427,18.69 25.443,18.502 25.662,17.908C25.959,17.158 26.178,16.923 27.647,15.891C28.945,14.985 29.586,14.25 30.165,13.046C30.634,12.045 30.962,10.106 30.806,9.325C30.727,8.918 30.665,8.887 30.227,8.965C29.461,9.121 27.616,10.091 26.881,10.732C26.303,11.248 26.178,11.482 25.912,12.561C25.396,14.594 24.63,15.469 23.332,15.469C21.784,15.469 21.221,14.203 21.769,11.951C22.253,9.95 22.003,7.855 21.049,5.979C20.424,4.744 20.08,4.4 19.736,4.681C19.345,4.994 18.454,6.714 18.188,7.636C17.86,8.777 17.876,11.029 18.235,12.42C18.579,13.749 18.47,14.25 17.688,14.985C17.172,15.469 17.063,15.5 16.328,15.422C15.655,15.36 15.452,15.266 14.952,14.719C14.467,14.203 14.326,13.89 14.092,12.796C13.764,11.326 13.404,10.81 12.169,10.013C11.45,9.544 9.839,8.903 9.386,8.903C9.011,8.903 9.12,11.044 9.558,12.342C10.152,14.109 10.902,14.985 12.966,16.376C14.28,17.267 14.717,18.19 14.342,19.284C13.748,21.082 11.512,20.832 9.261,18.721C8.729,18.221 8.135,17.814 7.963,17.814C6.978,17.814 4.18,19.128 4.18,19.597C4.18,19.691 4.586,20.175 5.086,20.66C7.041,22.599 9.636,23.083 13.607,22.255C14.983,21.958 14.983,21.958 15.718,22.348C16.187,22.599 16.562,22.943 16.75,23.302C17.047,23.849 17.047,23.865 16.719,24.553C16.281,25.46 15.421,26.007 13.904,26.335C12.106,26.742 11.622,26.976 11.075,27.742C10.293,28.837 9.73,30.228 9.792,30.916C9.824,31.245 11.387,31.135 12.873,30.713Z" style="fill:rgb(232,232,232);fill-rule:nonzero;"/></g>
            </g>
        </g>
    </g>
</svg>