<svg width="40" height="37" viewBox="0 0 40 37" fill="none" xmlns="http://www.w3.org/2000/svg">
<path d="M22.9569 19.6436C22.9569 21.3009 21.6123 22.6455 19.9551 22.6455C18.3134 22.6455 16.9688 21.3009 16.9688 19.6436C16.9688 17.9863 18.3134 16.6573 19.9551 16.6573C21.6123 16.6573 22.9569 17.9863 22.9569 19.6436Z" fill="#D0D0D0"/>
<path d="M19.142 35.466C18.7512 34.9032 18.204 34.0276 17.9382 33.5117C17.6724 33.0114 17.4222 32.5736 17.4066 32.5423C17.3753 32.5267 16.7656 32.7925 16.0464 33.1365C13.5917 34.2934 11.4185 34.6061 8.86999 34.1683C8.05698 34.0276 7.11889 33.8244 6.8062 33.7306C6.10263 33.5273 6.087 33.4022 6.4466 31.401C6.74366 29.6968 7.18143 28.4304 7.86936 27.3047C8.18206 26.8044 8.40095 26.3822 8.38531 26.351C8.35404 26.3353 7.97881 26.179 7.54103 26.0226C4.89875 25.0689 2.42846 23.052 0.505377 20.2377C-0.057475 19.4247 -0.0887446 19.3309 0.114508 19.0026C0.427204 18.5023 2.02195 17.1421 3.14766 16.4072C3.99193 15.8444 5.08637 15.391 6.30589 15.047C6.8062 14.9219 6.8062 14.9219 6.4935 13.8275C6.10263 12.4516 6.00882 7.96444 6.35279 6.49477C6.55604 5.57232 6.55604 5.57232 8.2915 5.66613C10.2771 5.77557 11.5748 6.11953 13.4666 7.04199C14.1389 7.38595 14.7018 7.65174 14.733 7.65174C14.7487 7.65174 14.8894 7.32341 15.0457 6.91691C15.89 4.64986 17.516 2.1483 19.189 0.537914C20.002 -0.243826 20.002 -0.243826 21.1746 1.00696C21.8156 1.69489 22.7068 2.82059 23.1758 3.50852C23.9888 4.74367 25.1302 7.01072 25.1302 7.43286C25.1302 7.72992 25.1458 7.72992 26.5842 7.04199C28.2728 6.21334 29.9926 5.75993 31.8844 5.63485C33.6511 5.52541 33.4635 5.33779 33.7449 7.43286C33.9795 9.3403 33.8544 12.4204 33.4635 13.8431C33.1508 14.9376 33.1508 14.9376 33.9482 15.1252C35.199 15.4222 36.8094 16.2978 38.2634 17.4704C40.4054 19.2215 40.3272 19.0026 39.3109 20.4254C38.3103 21.8012 36.4967 23.693 35.4179 24.4748C34.6518 25.0376 32.1658 26.2571 31.775 26.2571C31.6186 26.2571 31.7906 26.6949 32.3065 27.7112C33.1352 29.2903 33.6355 31.4166 33.5417 32.9019C33.4948 33.6837 33.4948 33.6837 32.3222 33.9651C31.5248 34.1683 30.4929 34.2622 29.117 34.2778C26.8187 34.3091 25.6305 34.0433 23.6918 33.0426C23.1133 32.7456 22.613 32.5111 22.5817 32.5111C22.5348 32.5111 22.1908 33.0895 21.7843 33.8087C21.3935 34.5123 20.7993 35.4035 20.471 35.7787C19.8769 36.4823 19.8769 36.4823 19.142 35.466ZM12.8725 30.7131C13.7168 30.4629 14.608 30.072 15.1239 29.7281C16.0307 29.1183 18.1571 27.0702 19.3453 25.663C20.0489 24.8344 20.0489 24.8344 20.7524 25.7412C23.4572 29.2278 26.3966 31.1039 29.1952 31.1039C30.1333 31.1039 30.274 31.0101 30.1333 30.4316C30.0082 29.8531 29.1796 28.149 28.7105 27.4923C28.2728 26.8825 27.9913 26.7418 26.2246 26.351C24.5986 25.9914 23.7699 25.5379 23.3478 24.8344C22.7693 23.865 23.254 22.708 24.411 22.2703C25.0989 22.0045 25.1927 22.0045 26.5686 22.2859C27.491 22.4735 28.6793 22.583 29.8206 22.583C32.2284 22.583 33.1821 22.2234 34.7456 20.7537C35.84 19.7218 35.84 19.7218 35.5429 19.3935C35.1052 18.9244 33.2134 18.002 32.416 17.8925C31.7437 17.7831 31.6968 17.7987 30.5242 18.815C27.9601 20.9882 26.1308 21.1758 25.5992 19.3153C25.4272 18.6899 25.4429 18.5023 25.6618 17.9082C25.9588 17.1577 26.1777 16.9232 27.6474 15.8913C28.9451 14.9845 29.5861 14.2496 30.1646 13.0457C30.6336 12.0451 30.9619 10.1064 30.8056 9.32467C30.7274 8.91816 30.6649 8.88689 30.2271 8.96507C29.461 9.12141 27.6161 10.0908 26.8813 10.7318C26.3028 11.2477 26.1777 11.4823 25.9119 12.5611C25.396 14.5936 24.6299 15.4691 23.3322 15.4691C21.7843 15.4691 21.2215 14.2027 21.7687 11.9513C22.2534 9.95006 22.0032 7.855 21.0495 5.97882C20.4241 4.74367 20.0801 4.39971 19.7362 4.68113C19.3453 4.99383 18.4541 6.71366 18.1883 7.63611C17.86 8.77745 17.8756 11.0289 18.2352 12.4204C18.5792 13.7493 18.4698 14.2496 17.688 14.9845C17.1721 15.4691 17.0626 15.5004 16.3278 15.4222C15.6555 15.3597 15.4522 15.2659 14.9519 14.7187C14.4672 14.2027 14.3265 13.89 14.092 12.7956C13.7637 11.3259 13.4041 10.81 12.1689 10.0126C11.4497 9.54355 9.83934 8.90253 9.38594 8.90253C9.0107 8.90253 9.12015 11.0445 9.55792 12.3422C10.152 14.1089 10.9025 14.9845 12.9663 16.376C14.2796 17.2671 14.7174 18.1896 14.3422 19.284C13.748 21.082 11.5123 20.8319 9.26086 18.7212C8.72928 18.2209 8.13516 17.8144 7.96317 17.8144C6.97818 17.8144 4.17955 19.1277 4.17955 19.5967C4.17955 19.6905 4.58606 20.1752 5.08637 20.6599C7.04072 22.5986 9.63609 23.0833 13.6073 22.2546C14.9832 21.9576 14.9832 21.9576 15.718 22.3484C16.1871 22.5986 16.5623 22.9426 16.7499 23.3022C17.047 23.8494 17.047 23.865 16.7187 24.553C16.2809 25.4598 15.421 26.007 13.9044 26.3353C12.1064 26.7418 11.6217 26.9763 11.0745 27.7424C10.2928 28.8369 9.7299 30.2284 9.79244 30.9163C9.82371 31.2446 11.3872 31.1352 12.8725 30.7131Z" fill="#E8E8E8"/>
</svg>
