<svg width="299" height="154" viewBox="0 0 299 154" fill="none" xmlns="http://www.w3.org/2000/svg">
<path d="M157.285 51.1367C157.285 54.4278 154.618 57.098 151.33 57.098C148.073 57.098 145.406 54.4278 145.406 51.1367C145.406 47.8456 148.073 45.2065 151.33 45.2065C154.618 45.2065 157.285 47.8456 157.285 51.1367Z" fill="#E8AC26"/>
<path d="M149.717 82.5577C148.942 81.4399 147.856 79.7012 147.329 78.6766C146.802 77.6831 146.305 76.8137 146.274 76.7516C146.212 76.7206 145.003 77.2484 143.576 77.9315C138.706 80.2291 134.395 80.85 129.339 79.9807C127.726 79.7012 125.865 79.2976 125.245 79.1113C123.849 78.7077 123.818 78.4593 124.532 74.4851C125.121 71.1008 125.989 68.5859 127.354 66.3504C127.974 65.3569 128.409 64.5186 128.378 64.4565C128.316 64.4254 127.571 64.115 126.703 63.8045C121.461 61.9105 116.56 57.9053 112.745 52.3166C111.629 50.702 111.567 50.5158 111.97 49.8637C112.59 48.8702 115.754 46.169 117.987 44.7097C119.662 43.592 121.833 42.6916 124.252 42.0085C125.245 41.7601 125.245 41.7601 124.625 39.5867C123.849 36.8545 123.663 27.9436 124.346 25.025C124.749 23.1932 124.749 23.1932 128.192 23.3795C132.131 23.5968 134.705 24.2799 138.458 26.1117C139.792 26.7948 140.908 27.3226 140.97 27.3226C141.001 27.3226 141.281 26.6706 141.591 25.8633C143.266 21.3613 146.491 16.3936 149.81 13.1956C151.423 11.6432 151.423 11.6432 153.749 14.127C155.021 15.4932 156.789 17.7287 157.719 19.0948C159.332 21.5476 161.596 26.0496 161.596 26.8879C161.596 27.4779 161.627 27.4779 164.481 26.1117C167.831 24.4662 171.243 23.5658 174.996 23.3174C178.501 23.1 178.128 22.7275 178.687 26.8879C179.152 30.6758 178.904 36.7924 178.128 39.6178C177.508 41.7912 177.508 41.7912 179.09 42.1637C181.571 42.7537 184.766 44.4924 187.65 46.821C191.9 50.2984 191.745 49.8637 189.729 52.6891C187.743 55.4214 184.146 59.1783 182.005 60.7307C180.486 61.8484 175.554 64.2702 174.779 64.2702C174.468 64.2702 174.81 65.1395 175.833 67.1577C177.477 70.2936 178.469 74.5162 178.283 77.4658C178.19 79.0182 178.19 79.0182 175.864 79.577C174.282 79.9807 172.235 80.167 169.506 80.198C164.946 80.2601 162.589 79.7323 158.743 77.7452C157.595 77.1553 156.603 76.6896 156.541 76.6896C156.448 76.6896 155.765 77.8383 154.959 79.2666C154.183 80.6637 153.005 82.4335 152.354 83.1787C151.175 84.5758 151.175 84.5758 149.717 82.5577ZM137.279 73.119C138.954 72.6222 140.722 71.846 141.746 71.1629C143.545 69.952 147.763 65.8847 150.12 63.0904C151.516 61.4448 151.516 61.4448 152.912 63.2456C158.278 70.1694 164.109 73.8952 169.661 73.8952C171.522 73.8952 171.801 73.7089 171.522 72.5601C171.274 71.4113 169.63 68.027 168.699 66.723C167.831 65.5121 167.272 65.2327 163.768 64.4565C160.542 63.7424 158.898 62.842 158.061 61.4448C156.913 59.5198 157.874 57.2222 160.17 56.3529C161.534 55.825 161.721 55.825 164.45 56.3839C166.28 56.7565 168.637 56.9738 170.901 56.9738C175.678 56.9738 177.57 56.2597 180.672 53.3412C182.843 51.292 182.843 51.292 182.254 50.64C181.385 49.7085 177.632 47.8766 176.05 47.6593C174.716 47.442 174.623 47.473 172.297 49.4912C167.21 53.8069 163.582 54.1795 162.527 50.4847C162.186 49.2428 162.217 48.8702 162.651 47.6904C163.24 46.2 163.675 45.7343 166.59 43.6851C169.164 41.8843 170.436 40.425 171.584 38.0343C172.514 36.0472 173.166 32.1972 172.855 30.6448C172.7 29.8375 172.576 29.7754 171.708 29.9307C170.188 30.2412 166.528 32.1662 165.07 33.4391C163.923 34.4637 163.675 34.9295 163.147 37.0718C162.124 41.1081 160.604 42.8468 158.03 42.8468C154.959 42.8468 153.842 40.3319 154.928 35.8609C155.889 31.8867 155.393 27.7262 153.501 24.0004C152.26 21.5476 151.578 20.8645 150.896 21.4234C150.12 22.0444 148.352 25.4597 147.825 27.2916C147.174 29.5581 147.205 34.0291 147.918 36.7924C148.6 39.4315 148.383 40.425 146.833 41.8843C145.809 42.8468 145.592 42.9089 144.134 42.7537C142.8 42.6295 142.397 42.4432 141.405 41.3565C140.443 40.3319 140.164 39.7109 139.699 37.5375C139.047 34.619 138.334 33.5944 135.884 32.0109C134.457 31.0795 131.262 29.8065 130.363 29.8065C129.618 29.8065 129.835 34.0601 130.704 36.6371C131.883 40.1456 133.371 41.8843 137.466 44.6476C140.071 46.4174 140.939 48.2492 140.195 50.4226C139.016 53.9932 134.581 53.4964 130.115 49.3049C129.06 48.3113 127.881 47.5041 127.54 47.5041C125.586 47.5041 120.034 50.1121 120.034 51.0436C120.034 51.2299 120.841 52.1924 121.833 53.1549C125.71 57.0049 130.859 57.9674 138.737 56.3218C141.467 55.7319 141.467 55.7319 142.924 56.5081C143.855 57.0049 144.599 57.6879 144.972 58.4021C145.561 59.4887 145.561 59.5198 144.91 60.8859C144.041 62.6867 142.335 63.7734 139.327 64.4254C135.76 65.2327 134.798 65.6984 133.713 67.2198C132.162 69.3932 131.045 72.1565 131.169 73.5226C131.231 74.1746 134.333 73.9573 137.279 73.119Z" fill="#4C9A4E"/>
<path d="M129.649 116.99C129.649 104.323 129.649 104.323 132.286 104.323C134.922 104.323 134.922 104.323 134.922 105.72C134.922 106.496 135.015 107.117 135.108 107.117C135.201 107.117 135.729 106.651 136.256 106.092C139.358 102.801 145.747 103.112 148.849 106.682C149.872 107.831 149.872 107.831 150.989 106.713C151.609 106.123 152.912 105.223 153.842 104.757C155.3 104.012 155.92 103.857 158.03 103.857C162.062 103.888 164.729 105.471 166.621 109.042C167.304 110.346 167.335 110.656 167.428 120.095C167.521 129.813 167.521 129.813 164.791 129.72C162.062 129.627 162.062 129.627 161.907 120.933C161.721 111.433 161.69 111.184 159.891 109.942C157.254 108.142 153.594 109.073 152.043 111.929C151.609 112.706 151.485 114.227 151.361 121.244C151.206 129.627 151.206 129.627 148.507 129.658C145.778 129.689 145.778 129.689 145.778 121.43C145.778 113.451 145.747 113.109 145.096 111.774C144.041 109.756 143.018 109.135 140.691 109.135C138.427 109.135 137.497 109.632 136.225 111.526C135.387 112.799 135.387 112.799 135.294 121.151C135.201 129.472 135.201 129.472 134.364 129.503C133.899 129.503 132.658 129.565 131.603 129.596C129.649 129.689 129.649 129.689 129.649 116.99Z" fill="#4C9A4E"/>
<path d="M96.7097 116.99C96.7097 124.225 90.8476 130.062 83.6207 130.062C76.3939 130.062 70.5628 124.225 70.5628 116.99C70.5628 109.756 76.3939 103.888 83.6207 103.888C90.8476 103.888 96.7097 109.756 96.7097 116.99ZM91.3439 116.99C91.3439 112.706 87.901 109.259 83.6207 109.259C79.3405 109.259 75.8976 112.706 75.8976 116.99C75.8976 121.275 79.3405 124.721 83.6207 124.721C87.901 124.721 91.3439 121.275 91.3439 116.99Z" fill="#4C9A4E"/>
<path d="M125.4 117.021C125.4 124.256 119.569 130.124 112.342 130.124C105.115 130.124 99.2531 124.256 99.2531 117.021C99.2531 109.787 105.115 103.919 112.342 103.919C119.569 103.919 125.4 109.787 125.4 117.021ZM120.034 117.083C120.034 112.83 116.591 109.352 112.311 109.352C108.062 109.352 104.619 112.83 104.619 117.083C104.619 121.337 108.062 124.783 112.311 124.783C116.591 124.783 120.034 121.337 120.034 117.083Z" fill="#4C9A4E"/>
<path d="M62.0332 129.565C61.4439 129.254 60.6995 128.509 60.3273 127.919C59.7379 126.864 59.7069 126.274 59.6139 110.16C59.5208 93.4556 59.5208 93.4556 62.3433 93.4556C65.1348 93.4556 65.1348 93.4556 65.1659 108.297C65.1969 116.431 65.2899 123.542 65.414 124.038C65.6001 124.877 65.7242 124.97 67.0268 125.063C68.4846 125.156 68.4846 125.156 68.3916 127.329C68.3295 128.54 68.2055 129.596 68.0814 129.72C67.9884 129.844 66.8097 129.969 65.507 130.031C63.6771 130.093 62.8706 130 62.0332 129.565Z" fill="#4C9A4E"/>
<path d="M29.5898 129.503C29.3417 129.254 29.4658 95.4737 29.7449 95.0701C29.931 94.7286 31.6679 94.6665 38.1814 94.7596C46.3698 94.8528 46.3698 94.8528 48.2928 95.7532C50.433 96.7467 52.387 98.6096 53.2245 100.504C53.5657 101.249 53.7518 102.522 53.7828 104.012C53.7828 106.806 53.1004 108.514 51.2084 110.439C49.8437 111.867 49.7196 112.085 50.3709 112.085C50.9603 112.085 53.1935 114.32 53.8448 115.531C54.6202 117.052 54.7753 120.902 54.155 123.076C53.4416 125.529 51.1774 127.826 48.541 128.789C46.8351 129.41 46.0286 129.472 38.2124 129.534C33.5289 129.596 29.6519 129.565 29.5898 129.503ZM46.742 123.697C48.1688 122.641 48.7581 121.213 48.572 119.102C48.4169 117.052 47.7966 115.997 46.1837 115.034C45.2532 114.475 44.5708 114.413 40.3216 114.413C35.514 114.413 35.514 114.413 35.4209 119.071C35.3899 121.616 35.421 123.883 35.514 124.131C35.6381 124.473 36.6306 124.535 40.7558 124.473C45.3152 124.349 45.9356 124.287 46.742 123.697ZM45.5013 108.825C47.5795 107.614 48.3549 104.54 47.1762 102.211C46.2147 100.348 45.5324 100.131 40.1975 100.131C35.514 100.131 35.514 100.131 35.4209 104.912C35.3279 109.663 35.3279 109.663 39.9184 109.539C43.6714 109.446 44.6949 109.321 45.5013 108.825Z" fill="#4C9A4E"/>
<path d="M256.538 129.751C254.274 129.068 251.824 127.05 250.552 124.814C249.094 122.331 248.691 120.188 248.815 116.152C248.908 112.861 249.001 112.364 249.901 110.532C251.576 107.179 253.933 105.13 257.314 104.136C260.415 103.236 264.137 104.105 266.371 106.248C267.363 107.241 267.363 107.241 267.425 101.031C267.425 97.6472 267.425 94.5423 267.394 94.1697C267.332 93.4867 267.425 93.4556 270.217 93.4556C273.101 93.4556 273.101 93.4556 273.039 111.246C273.008 120.996 272.977 129.161 272.946 129.379C272.946 129.596 272.357 129.689 271.178 129.627C270.186 129.565 269.007 129.503 268.542 129.503C267.735 129.472 267.673 129.379 267.673 128.044C267.673 126.615 267.673 126.615 266.464 127.702C264.448 129.534 263.486 129.875 260.384 130C258.865 130.031 257.128 129.937 256.538 129.751ZM268.449 117.146C268.449 113.016 265.099 109.694 260.974 109.694C256.848 109.694 253.53 113.016 253.53 117.146C253.53 121.275 256.848 124.628 260.974 124.628C265.099 124.628 268.449 121.275 268.449 117.146Z" fill="#57482E"/>
<path d="M222.296 129.565C222.172 129.472 222.079 123.728 222.079 116.835C222.079 104.323 222.079 104.323 224.715 104.323C227.352 104.323 227.352 104.323 227.352 105.658C227.352 106.403 227.445 107.117 227.538 107.21C227.662 107.334 228.406 106.806 229.213 106.092C233.493 102.211 240.441 103.267 243.201 108.204C244.442 110.439 244.721 112.799 244.721 121.586C244.721 129.41 244.721 129.41 242.643 129.565C238.766 129.875 239.2 130.9 239.076 121.244C238.983 113.606 238.921 112.768 238.363 111.65C237.463 109.88 236.44 109.259 234.144 109.073C231.353 108.856 229.709 109.756 228.53 112.085C227.662 113.761 227.662 113.761 227.662 121.772C227.662 129.782 227.662 129.782 225.087 129.782C223.661 129.782 222.389 129.689 222.296 129.565Z" fill="#57482E"/>
<path d="M202.135 130.031C201.143 129.906 199.871 129.565 199.313 129.316C197.824 128.602 196.056 126.739 195.312 125.156C194.443 123.2 194.102 117.86 194.35 110.47C194.536 104.323 194.536 104.323 197.11 104.323C199.685 104.323 199.685 104.323 199.809 112.643C199.902 120.468 199.964 120.995 200.615 122.237C201.639 124.225 202.942 124.97 205.237 124.97C206.85 124.97 207.346 124.845 208.463 124.038C211.13 122.144 211.068 122.455 211.161 112.83C211.254 104.323 211.254 104.323 214.046 104.323C216.806 104.323 216.806 104.323 216.806 116.897C216.806 129.472 216.806 129.472 215.503 129.534C214.759 129.534 213.766 129.596 213.239 129.658C211.502 129.813 211.223 129.565 211.223 128.012C211.223 126.615 211.223 126.615 210.013 127.702C207.687 129.813 205.454 130.465 202.135 130.031Z" fill="#57482E"/>
<path d="M176.795 119.474C176.795 109.135 176.795 109.135 174.313 109.228C171.832 109.352 171.832 109.352 171.832 106.837C171.832 104.323 171.832 104.323 174.282 104.323C176.702 104.323 176.702 104.323 176.888 102.056C177.074 99.448 177.694 97.7093 178.904 96.4673C180.175 95.1323 181.292 94.6665 183.742 94.4802C185.882 94.325 190.38 94.8218 190.814 95.2564C191.062 95.5048 190.256 99.3548 189.853 99.7585C189.729 99.8827 189.201 99.8516 188.705 99.6653C187.526 99.1996 184.828 99.1685 183.99 99.6343C183.06 100.131 182.378 101.559 182.378 103.081C182.378 104.323 182.378 104.323 186.1 104.323C189.729 104.323 189.822 104.354 189.884 105.037C190.039 107.396 189.946 108.856 189.667 109.042C189.511 109.166 187.774 109.29 185.882 109.29C182.378 109.29 182.378 109.29 182.316 119.474C182.223 129.627 182.223 129.627 179.524 129.72C176.795 129.813 176.795 129.813 176.795 119.474Z" fill="#57482E"/>
</svg>
